<svg width="364" height="128" viewBox="0 0 364 128" fill="none" xmlns="http://www.w3.org/2000/svg">
<path d="M130.192 68.448C127.419 68.448 124.88 67.808 122.576 66.528C120.315 65.248 118.501 63.328 117.136 60.768C115.813 58.1653 115.152 54.88 115.152 50.912C115.152 46.9013 115.792 43.616 117.072 41.056C118.395 38.496 120.187 36.5973 122.448 35.36C124.709 34.08 127.291 33.44 130.192 33.44C133.563 33.44 136.528 34.1653 139.088 35.616C141.691 37.0667 143.739 39.0933 145.232 41.696C146.768 44.2987 147.536 47.3707 147.536 50.912C147.536 54.4533 146.768 57.5467 145.232 60.192C143.739 62.7947 141.691 64.8213 139.088 66.272C136.528 67.7227 133.563 68.448 130.192 68.448ZM111.248 80.416V33.824H118.864V41.888L118.608 50.976L119.248 60.064V80.416H111.248ZM129.296 61.6C131.216 61.6 132.923 61.1733 134.416 60.32C135.952 59.4667 137.168 58.2293 138.064 56.608C138.96 54.9867 139.408 53.088 139.408 50.912C139.408 48.6933 138.96 46.7947 138.064 45.216C137.168 43.5947 135.952 42.3573 134.416 41.504C132.923 40.6507 131.216 40.224 129.296 40.224C127.376 40.224 125.648 40.6507 124.112 41.504C122.576 42.3573 121.36 43.5947 120.464 45.216C119.568 46.7947 119.12 48.6933 119.12 50.912C119.12 53.088 119.568 54.9867 120.464 56.608C121.36 58.2293 122.576 59.4667 124.112 60.32C125.648 61.1733 127.376 61.6 129.296 61.6ZM156.211 68V31.904C156.211 28.32 157.256 25.4613 159.347 23.328C161.48 21.152 164.51 20.064 168.435 20.064C169.843 20.064 171.166 20.2133 172.403 20.512C173.683 20.8107 174.75 21.28 175.603 21.92L173.427 27.936C172.83 27.4667 172.147 27.1253 171.379 26.912C170.611 26.656 169.822 26.528 169.011 26.528C167.347 26.528 166.088 26.9973 165.235 27.936C164.382 28.832 163.955 30.1973 163.955 32.032V35.872L164.211 39.456V68H156.211ZM150.579 40.48V34.08H173.363V40.48H150.579ZM178.995 68V33.824H186.995V68H178.995ZM183.027 28.192C181.534 28.192 180.296 27.7227 179.315 26.784C178.376 25.8453 177.907 24.7147 177.907 23.392C177.907 22.0267 178.376 20.896 179.315 20C180.296 19.0613 181.534 18.592 183.027 18.592C184.52 18.592 185.736 19.04 186.675 19.936C187.656 20.7893 188.147 21.8773 188.147 23.2C188.147 24.608 187.678 25.8027 186.739 26.784C185.8 27.7227 184.563 28.192 183.027 28.192ZM208.058 68.448C205.199 68.448 202.447 68.0853 199.802 67.36C197.199 66.592 195.13 65.6747 193.594 64.608L196.666 58.528C198.202 59.5093 200.037 60.32 202.17 60.96C204.303 61.6 206.437 61.92 208.57 61.92C211.087 61.92 212.901 61.5787 214.01 60.896C215.162 60.2133 215.738 59.296 215.738 58.144C215.738 57.2053 215.354 56.5013 214.586 56.032C213.818 55.52 212.815 55.136 211.578 54.88C210.341 54.624 208.954 54.3893 207.418 54.176C205.925 53.9627 204.41 53.6853 202.874 53.344C201.381 52.96 200.015 52.4267 198.778 51.744C197.541 51.0187 196.538 50.0587 195.77 48.864C195.002 47.6693 194.618 46.0907 194.618 44.128C194.618 41.952 195.237 40.0747 196.474 38.496C197.711 36.8747 199.439 35.6373 201.658 34.784C203.919 33.888 206.586 33.44 209.658 33.44C211.962 33.44 214.287 33.696 216.634 34.208C218.981 34.72 220.922 35.4453 222.458 36.384L219.386 42.464C217.765 41.4827 216.122 40.8213 214.458 40.48C212.837 40.096 211.215 39.904 209.594 39.904C207.162 39.904 205.349 40.2667 204.154 40.992C203.002 41.7173 202.426 42.6347 202.426 43.744C202.426 44.768 202.81 45.536 203.578 46.048C204.346 46.56 205.349 46.9653 206.586 47.264C207.823 47.5627 209.189 47.8187 210.682 48.032C212.218 48.2027 213.733 48.48 215.226 48.864C216.719 49.248 218.085 49.7813 219.322 50.464C220.602 51.104 221.626 52.0213 222.394 53.216C223.162 54.4107 223.546 55.968 223.546 57.888C223.546 60.0213 222.906 61.8773 221.626 63.456C220.389 65.0347 218.618 66.272 216.314 67.168C214.01 68.0213 211.258 68.448 208.058 68.448ZM243.3 68.448C239.545 68.448 236.644 67.488 234.595 65.568C232.548 63.6053 231.524 60.7253 231.524 56.928V26.272H239.524V56.736C239.524 58.3573 239.929 59.616 240.74 60.512C241.593 61.408 242.766 61.856 244.26 61.856C246.052 61.856 247.545 61.3867 248.74 60.448L250.98 66.144C250.041 66.912 248.889 67.488 247.524 67.872C246.158 68.256 244.75 68.448 243.3 68.448ZM225.892 40.48V34.08H248.676V40.48H225.892ZM272.5 68.448C268.702 68.448 265.374 67.7013 262.516 66.208C259.7 64.672 257.502 62.5813 255.924 59.936C254.388 57.2907 253.62 54.2827 253.62 50.912C253.62 47.4987 254.366 44.4907 255.86 41.888C257.396 39.2427 259.486 37.1733 262.132 35.68C264.82 34.1867 267.87 33.44 271.284 33.44C274.612 33.44 277.577 34.1653 280.18 35.616C282.782 37.0667 284.83 39.1147 286.324 41.76C287.817 44.4053 288.564 47.52 288.564 51.104C288.564 51.4453 288.542 51.8293 288.5 52.256C288.5 52.6827 288.478 53.088 288.436 53.472H259.956V48.16H284.212L281.076 49.824C281.118 47.8613 280.713 46.1333 279.86 44.64C279.006 43.1467 277.833 41.9733 276.34 41.12C274.889 40.2667 273.204 39.84 271.284 39.84C269.321 39.84 267.593 40.2667 266.1 41.12C264.649 41.9733 263.497 43.168 262.644 44.704C261.833 46.1973 261.428 47.968 261.428 50.016V51.296C261.428 53.344 261.897 55.1573 262.836 56.736C263.774 58.3147 265.097 59.5307 266.804 60.384C268.51 61.2373 270.473 61.664 272.692 61.664C274.612 61.664 276.34 61.3653 277.876 60.768C279.412 60.1707 280.777 59.232 281.972 57.952L286.26 62.88C284.724 64.672 282.782 66.0587 280.436 67.04C278.132 67.9787 275.486 68.448 272.5 68.448ZM296.248 68V33.824H303.864V43.232L302.968 40.48C303.992 38.176 305.592 36.4267 307.768 35.232C309.987 34.0373 312.739 33.44 316.024 33.44V41.056C315.683 40.9707 315.363 40.928 315.064 40.928C314.765 40.8853 314.467 40.864 314.168 40.864C311.139 40.864 308.728 41.76 306.936 43.552C305.144 45.3013 304.248 47.9253 304.248 51.424V68H296.248ZM325.058 68.448C323.607 68.448 322.37 67.9573 321.346 66.976C320.322 65.952 319.81 64.672 319.81 63.136C319.81 61.5147 320.322 60.2347 321.346 59.296C322.37 58.3147 323.607 57.824 325.058 57.824C326.509 57.824 327.746 58.3147 328.77 59.296C329.794 60.2347 330.306 61.5147 330.306 63.136C330.306 64.672 329.794 65.952 328.77 66.976C327.746 67.9573 326.509 68.448 325.058 68.448ZM132.304 113V106.088L131.856 104.616V92.52C131.856 90.1733 131.152 88.36 129.744 87.08C128.336 85.7573 126.203 85.096 123.344 85.096C121.424 85.096 119.525 85.3947 117.648 85.992C115.813 86.5893 114.256 87.4213 112.976 88.488L109.84 82.664C111.675 81.256 113.851 80.2107 116.368 79.528C118.928 78.8027 121.573 78.44 124.304 78.44C129.253 78.44 133.072 79.6347 135.76 82.024C138.491 84.3707 139.856 88.0187 139.856 92.968V113H132.304ZM121.552 113.448C118.992 113.448 116.752 113.021 114.832 112.168C112.912 111.272 111.419 110.056 110.352 108.52C109.328 106.941 108.816 105.171 108.816 103.208C108.816 101.288 109.264 99.56 110.16 98.024C111.099 96.488 112.613 95.272 114.704 94.376C116.795 93.48 119.568 93.032 123.024 93.032H132.944V98.344H123.6C120.869 98.344 119.035 98.792 118.096 99.688C117.157 100.541 116.688 101.608 116.688 102.888C116.688 104.339 117.264 105.491 118.416 106.344C119.568 107.197 121.168 107.624 123.216 107.624C125.179 107.624 126.928 107.176 128.464 106.28C130.043 105.384 131.173 104.061 131.856 102.312L133.2 107.112C132.432 109.117 131.045 110.675 129.04 111.784C127.077 112.893 124.581 113.448 121.552 113.448ZM165.674 125.864C162.516 125.864 159.423 125.437 156.394 124.584C153.407 123.773 150.954 122.579 149.034 121L152.618 114.984C154.111 116.221 155.988 117.203 158.25 117.928C160.554 118.696 162.879 119.08 165.226 119.08C168.98 119.08 171.732 118.205 173.482 116.456C175.231 114.749 176.106 112.168 176.106 108.712V102.632L176.746 94.888L176.49 87.144V78.824H184.106V107.816C184.106 114.003 182.527 118.547 179.37 121.448C176.212 124.392 171.647 125.864 165.674 125.864ZM164.65 111.464C161.407 111.464 158.463 110.781 155.818 109.416C153.215 108.008 151.146 106.067 149.61 103.592C148.116 101.117 147.37 98.216 147.37 94.888C147.37 91.6027 148.116 88.7227 149.61 86.248C151.146 83.7733 153.215 81.8533 155.818 80.488C158.463 79.1227 161.407 78.44 164.65 78.44C167.551 78.44 170.154 79.016 172.458 80.168C174.762 81.32 176.596 83.112 177.962 85.544C179.37 87.976 180.074 91.0907 180.074 94.888C180.074 98.6853 179.37 101.821 177.962 104.296C176.596 106.728 174.762 108.541 172.458 109.736C170.154 110.888 167.551 111.464 164.65 111.464ZM165.866 104.68C167.871 104.68 169.663 104.275 171.242 103.464C172.82 102.611 174.036 101.459 174.89 100.008C175.786 98.5147 176.234 96.808 176.234 94.888C176.234 92.968 175.786 91.2827 174.89 89.832C174.036 88.3387 172.82 87.208 171.242 86.44C169.663 85.6293 167.871 85.224 165.866 85.224C163.86 85.224 162.047 85.6293 160.426 86.44C158.847 87.208 157.61 88.3387 156.714 89.832C155.86 91.2827 155.434 92.968 155.434 94.888C155.434 96.808 155.86 98.5147 156.714 100.008C157.61 101.459 158.847 102.611 160.426 103.464C162.047 104.275 163.86 104.68 165.866 104.68ZM210.687 113.448C206.89 113.448 203.562 112.701 200.703 111.208C197.887 109.672 195.69 107.581 194.111 104.936C192.575 102.291 191.807 99.2827 191.807 95.912C191.807 92.4987 192.554 89.4907 194.047 86.888C195.583 84.2427 197.674 82.1733 200.319 80.68C203.007 79.1867 206.058 78.44 209.471 78.44C212.799 78.44 215.764 79.1653 218.367 80.616C220.97 82.0667 223.018 84.1147 224.511 86.76C226.004 89.4053 226.751 92.52 226.751 96.104C226.751 96.4453 226.73 96.8293 226.687 97.256C226.687 97.6827 226.666 98.088 226.623 98.472H198.143V93.16H222.399L219.263 94.824C219.306 92.8613 218.9 91.1333 218.047 89.64C217.194 88.1467 216.02 86.9733 214.527 86.12C213.076 85.2667 211.391 84.84 209.471 84.84C207.508 84.84 205.78 85.2667 204.287 86.12C202.836 86.9733 201.684 88.168 200.831 89.704C200.02 91.1973 199.615 92.968 199.615 95.016V96.296C199.615 98.344 200.084 100.157 201.023 101.736C201.962 103.315 203.284 104.531 204.991 105.384C206.698 106.237 208.66 106.664 210.879 106.664C212.799 106.664 214.527 106.365 216.063 105.768C217.599 105.171 218.964 104.232 220.159 102.952L224.447 107.88C222.911 109.672 220.97 111.059 218.623 112.04C216.319 112.979 213.674 113.448 210.687 113.448ZM253.828 78.44C256.558 78.44 258.99 78.9733 261.124 80.04C263.3 81.1067 265.006 82.7493 266.244 84.968C267.481 87.144 268.1 89.96 268.1 93.416V113H260.1V94.44C260.1 91.4107 259.374 89.1493 257.924 87.656C256.516 86.1627 254.532 85.416 251.972 85.416C250.094 85.416 248.43 85.8 246.98 86.568C245.529 87.336 244.398 88.488 243.588 90.024C242.82 91.5173 242.436 93.416 242.436 95.72V113H234.436V78.824H242.052V88.04L240.708 85.224C241.902 83.048 243.63 81.384 245.892 80.232C248.196 79.0373 250.841 78.44 253.828 78.44ZM293.991 113.448C290.407 113.448 287.207 112.701 284.391 111.208C281.617 109.672 279.441 107.581 277.863 104.936C276.284 102.291 275.495 99.2827 275.495 95.912C275.495 92.4987 276.284 89.4907 277.863 86.888C279.441 84.2427 281.617 82.1733 284.391 80.68C287.207 79.1867 290.407 78.44 293.991 78.44C297.319 78.44 300.241 79.1227 302.759 80.488C305.319 81.8107 307.26 83.7733 308.583 86.376L302.439 89.96C301.415 88.3387 300.156 87.144 298.663 86.376C297.212 85.608 295.633 85.224 293.927 85.224C291.964 85.224 290.193 85.6507 288.615 86.504C287.036 87.3573 285.799 88.5947 284.903 90.216C284.007 91.7947 283.559 93.6933 283.559 95.912C283.559 98.1307 284.007 100.051 284.903 101.672C285.799 103.251 287.036 104.467 288.615 105.32C290.193 106.173 291.964 106.6 293.927 106.6C295.633 106.6 297.212 106.216 298.663 105.448C300.156 104.68 301.415 103.485 302.439 101.864L308.583 105.448C307.26 108.008 305.319 109.992 302.759 111.4C300.241 112.765 297.319 113.448 293.991 113.448ZM317.877 125.864C316.213 125.864 314.549 125.587 312.885 125.032C311.221 124.477 309.834 123.709 308.724 122.728L311.924 116.84C312.735 117.565 313.653 118.141 314.677 118.568C315.701 118.995 316.746 119.208 317.812 119.208C319.263 119.208 320.437 118.845 321.333 118.12C322.229 117.395 323.061 116.179 323.829 114.472L325.812 109.992L326.453 109.032L339.381 78.824H347.061L331.061 115.752C329.994 118.312 328.799 120.339 327.477 121.832C326.197 123.325 324.746 124.371 323.125 124.968C321.546 125.565 319.797 125.864 317.877 125.864ZM324.917 114.216L309.492 78.824H317.812L330.357 108.328L324.917 114.216Z" fill="#FFF"/>
<path d="M91.9605 68.9749C91.9593 82.8163 91.9614 96.4446 91.9553 110.073C91.9532 114.798 90.7565 115.999 86.0578 115.999C59.2216 116.001 32.3855 116 5.54931 115.997C1.1906 115.996 0.00130475 114.805 0.00113603 110.463C-0.000222653 75.5398 -0.000310246 40.6172 0.00059455 5.69449C0.000708021 1.36151 1.14488 0.0447511 5.48331 0.0331798C24.7428 -0.0181883 44.0025 0.0282915 63.262 1.35367e-05C66.0433 -0.00406907 68.172 0.915122 70.1328 3.02668C76.3548 9.72701 82.732 16.2854 89.1561 22.7926C91.139 24.8011 92.0194 26.963 91.9997 29.7939C91.9092 42.7827 91.9603 55.7725 91.9605 68.9749ZM84.5693 50.0168C84.568 45.2599 84.567 40.503 84.5654 35.7461C84.5644 32.8879 84.564 32.8827 81.6058 32.8784C76.223 32.8707 70.8402 32.8766 65.4575 32.8642C61.0486 32.854 59.549 31.3739 59.5434 27.0215C59.5361 21.3415 59.4899 15.6607 59.5817 9.9822C59.6104 8.21007 59.0022 7.64821 57.2629 7.6515C41.4688 7.68136 25.6746 7.66828 9.88073 7.59686C8.00489 7.58837 7.48445 8.23666 7.48763 10.0779C7.5378 39.0455 7.52089 68.0133 7.53871 96.981C7.53906 97.5512 7.22785 98.26 8.22448 98.8749C21.9664 84.7677 35.7447 70.6231 49.8456 56.1473C49.3542 55.7496 48.4431 55.0755 47.607 54.3182C46.7147 53.5101 45.8615 52.6527 45.0472 51.7652C42.96 49.4901 43.5233 47.3277 46.4737 46.5275C48.5148 45.974 50.6078 45.6122 52.6779 45.1663C57.4388 44.1407 62.1925 43.0798 66.9636 42.1044C69.8751 41.5091 71.5824 43.329 71.0264 46.2588C69.8009 52.7161 68.6242 59.1828 67.3782 65.6361C67.0869 67.1446 66.8916 68.8097 65.0681 69.3954C63.2128 69.9913 62.1908 68.6726 61.0777 67.5912C59.2724 65.8374 57.4715 64.079 55.5365 62.1937C40.1972 77.7676 25.099 93.0964 10.0459 108.38C10.2783 108.393 10.7512 108.443 11.2241 108.443C34.7383 108.447 58.2525 108.448 81.7667 108.445C84.5625 108.445 84.5688 108.436 84.569 105.609C84.5708 87.2205 84.5697 68.8316 84.5693 50.0168ZM73.0364 25.0295C75.1769 24.935 77.3377 25.2226 79.5456 24.8451C78.3705 22.7867 69.0412 13.0074 67.0209 11.7894C67.0209 14.4781 67.0208 16.9876 67.0209 19.497C67.0213 25.018 67.0213 25.018 73.0364 25.0295Z" fill="#FFF"/>
</svg>
