<svg width="13" height="14" viewBox="0 0 13 14" fill="none" xmlns="http://www.w3.org/2000/svg">
<path d="M0 14V0H6.06C7.31333 0 8.39333 0.206667 9.3 0.62C10.2067 1.02 10.9067 1.6 11.4 2.36C11.8933 3.12 12.14 4.02667 12.14 5.08C12.14 6.12 11.8933 7.02 11.4 7.78C10.9067 8.54 10.2067 9.12667 9.3 9.54C8.39333 9.94 7.31333 10.14 6.06 10.14H1.8L3 8.5V11.5V14L0 14ZM3 9L1.8 7.5H5.88C6.88 7.5 7.62667 7.28667 8.12 6.86C8.61333 6.43333 8.86 5.84 8.86 5.08C8.86 4.30667 8.49333 3.92667 8 3.5C7.38 3.22 7 3 6 3H2L3.24 1.1L3 2V3V5V9Z" fill="white"/>
</svg>
